<?xml version="1.0" encoding="iso-8859-1"?>
<!-- Generator: Adobe Illustrator 19.0.0, SVG Export Plug-In . SVG Version: 6.00 Build 0)  -->
<svg version="1.1" id="Layer_1" xmlns="http://www.w3.org/2000/svg" xmlns:xlink="http://www.w3.org/1999/xlink" x="0px" y="0px"
	 viewBox="0 0 509.287 509.287" style="enable-background:new 0 0 509.287 509.287;" xml:space="preserve">
<circle style="fill:#6EB1E1;" cx="254.644" cy="254.644" r="254.644"/>
<path style="fill:#FCFCFD;" d="M478.771,421.468L322.797,191.576V66.458h10.85c12.207,0,22.04-9.833,22.04-22.04
	s-9.833-22.04-22.04-22.04H175.64c-12.207,0-22.04,9.833-22.04,22.04s9.833,22.04,22.04,22.04h10.85v125.118L30.517,421.468
	c-18.649,27.804,1.356,65.441,34.924,65.441h378.405C477.415,486.909,497.42,449.271,478.771,421.468z"/>
<g>
	<path style="fill:#F0582F;" d="M368.233,301.097H141.054L50.522,434.691c-5.425,8.138-2.713,15.936-1.017,18.649
		c1.695,3.052,6.103,9.833,16.275,9.833h378.405c9.833,0,14.58-6.781,16.276-9.833s4.408-10.511-1.017-18.649L368.233,301.097z"/>
	<circle style="fill:#F0582F;" cx="246.845" cy="221.075" r="22.379"/>
</g>
<g>
	<circle style="fill:#FCFCFD;" cx="326.188" cy="380.44" r="20.683"/>
	<circle style="fill:#FCFCFD;" cx="195.306" cy="347.211" r="12.546"/>
</g>
<circle style="fill:#F0582F;" cx="260.747" cy="102.4" r="18.649"/>
<g>
</g>
<g>
</g>
<g>
</g>
<g>
</g>
<g>
</g>
<g>
</g>
<g>
</g>
<g>
</g>
<g>
</g>
<g>
</g>
<g>
</g>
<g>
</g>
<g>
</g>
<g>
</g>
<g>
</g>
</svg>
